<svg id="visual" viewBox="0 0 900 600" width="900" height="600" preserveAspectRatio="none" xmlns="http://www.w3.org/2000/svg" xmlns:xlink="http://www.w3.org/1999/xlink" version="1.1"><path d="M0 66L21.5 64.3C43 62.7 86 59.3 128.8 56C171.7 52.7 214.3 49.3 257.2 48.2C300 47 343 48 385.8 53.2C428.7 58.3 471.3 67.7 514.2 70.5C557 73.3 600 69.7 642.8 65.5C685.7 61.3 728.3 56.7 771.2 53.7C814 50.7 857 49.3 878.5 48.7L900 48L900 0L878.5 0C857 0 814 0 771.2 0C728.3 0 685.7 0 642.8 0C600 0 557 0 514.2 0C471.3 0 428.7 0 385.8 0C343 0 300 0 257.2 0C214.3 0 171.7 0 128.8 0C86 0 43 0 21.5 0L0 0Z" fill="#ffffff" stroke-linecap="round" stroke-linejoin="miter"></path></svg>