<svg version="1.2" baseProfile="tiny-ps" xmlns="http://www.w3.org/2000/svg" viewBox="0 0 957 393" width="957" height="393">
	<title>New Project</title>
	<style>
		tspan { white-space:pre }
	</style>
	<path id="COUNTERTOP" fill="#000000" aria-label="COUNTERTOP"  d="M36.2 74.5Q36.2 62.2 41.6 53.05Q47.15 43.75 56 38.5Q64.85 33.25 75.2 33.25Q82.7 33.25 88.85 35.2Q95.15 37.15 100.25 40.75Q105.35 44.2 108.95 48.85L108.95 32.05Q102.35 26.2 94.55 23.35Q86.75 20.5 75.2 20.5Q64.25 20.5 54.65 24.55Q45.2 28.45 38 35.8Q30.8 43 26.75 52.9Q22.7 62.8 22.7 74.5Q22.7 86.2 26.75 96.1Q30.8 106 38 113.35Q45.2 120.55 54.65 124.6Q64.25 128.5 75.2 128.5Q86.75 128.5 94.55 125.65Q102.35 122.8 108.95 116.95L108.95 100.15Q105.35 104.8 100.25 108.4Q95.15 111.85 88.85 113.8Q82.7 115.75 75.2 115.75Q64.85 115.75 56 110.5Q47.15 105.25 41.6 95.95Q36.2 86.65 36.2 74.5ZM138.95 74.5Q138.95 62.65 144.05 53.35Q149.3 44.05 158.3 38.65Q167.3 33.25 178.7 33.25Q190.25 33.25 199.1 38.65Q208.1 44.05 213.2 53.35Q218.45 62.65 218.45 74.5Q218.45 86.35 213.2 95.65Q208.1 104.95 199.1 110.35Q190.25 115.75 178.7 115.75Q167.3 115.75 158.3 110.35Q149.3 104.95 144.05 95.65Q138.95 86.35 138.95 74.5ZM125.45 74.5Q125.45 85.9 129.35 95.8Q133.4 105.7 140.6 113.05Q147.8 120.25 157.55 124.45Q167.3 128.5 178.7 128.5Q190.25 128.5 199.85 124.45Q209.6 120.25 216.8 113.05Q224 105.7 227.9 95.8Q231.95 85.9 231.95 74.5Q231.95 62.95 227.9 53.2Q224 43.3 216.8 36.1Q209.6 28.75 199.85 24.7Q190.25 20.5 178.7 20.5Q167.3 20.5 157.55 24.7Q147.8 28.75 140.6 36.1Q133.4 43.3 129.35 53.2Q125.45 62.95 125.45 74.5ZM261.95 22L249.2 22L249.2 92.5Q249.2 100.3 251.6 106.9Q254.15 113.5 258.8 118.3Q263.6 123.1 270.2 125.8Q276.8 128.5 284.9 128.5Q293 128.5 299.6 125.8Q306.2 123.1 310.85 118.3Q315.65 113.5 318.05 106.9Q320.6 100.3 320.6 92.5L320.6 22L307.85 22L307.85 92.5Q307.85 103.3 302 109.9Q296.15 116.5 284.9 116.5Q273.65 116.5 267.8 109.9Q261.95 103.3 261.95 92.5L261.95 22ZM436.1 22L423.35 22L423.35 100.15L343.85 16.75L343.85 127L356.6 127L356.6 48.85L436.1 132.25L436.1 22ZM449.6 22L449.6 34L476.6 34L476.6 127L489.35 127L489.35 34L516.35 34L516.35 22L449.6 22ZM536.9 115L536.9 127L589.85 127L589.85 115L536.9 115ZM536.9 22L536.9 34L589.85 34L589.85 22L536.9 22ZM536.9 64L536.9 76L586.85 76L586.85 64L536.9 64ZM542.6 22L529.85 22L529.85 127L542.6 127L542.6 22ZM645.35 75.25L631.1 75.25L667.1 127L682.85 127L645.35 75.25ZM625.1 22L612.35 22L612.35 127L625.1 127L625.1 22ZM619.4 22L619.4 33.25L640.85 33.25Q647.6 33.25 652.7 35.65Q657.95 38.05 660.8 42.55Q663.8 47.05 663.8 53.5Q663.8 59.95 660.8 64.45Q657.95 68.95 652.7 71.35Q647.6 73.75 640.85 73.75L619.4 73.75L619.4 85L640.85 85Q651.05 85 659 81.25Q667.1 77.35 671.75 70.3Q676.55 63.1 676.55 53.5Q676.55 43.75 671.75 36.7Q667.1 29.65 659 25.9Q651.05 22 640.85 22L619.4 22ZM685.85 22L685.85 34L712.85 34L712.85 127L725.6 127L725.6 34L752.6 34L752.6 22L685.85 22ZM766.1 74.5Q766.1 62.65 771.2 53.35Q776.45 44.05 785.45 38.65Q794.45 33.25 805.85 33.25Q817.4 33.25 826.25 38.65Q835.25 44.05 840.35 53.35Q845.6 62.65 845.6 74.5Q845.6 86.35 840.35 95.65Q835.25 104.95 826.25 110.35Q817.4 115.75 805.85 115.75Q794.45 115.75 785.45 110.35Q776.45 104.95 771.2 95.65Q766.1 86.35 766.1 74.5ZM752.6 74.5Q752.6 85.9 756.5 95.8Q760.55 105.7 767.75 113.05Q774.95 120.25 784.7 124.45Q794.45 128.5 805.85 128.5Q817.4 128.5 827 124.45Q836.75 120.25 843.95 113.05Q851.15 105.7 855.05 95.8Q859.1 85.9 859.1 74.5Q859.1 62.95 855.05 53.2Q851.15 43.3 843.95 36.1Q836.75 28.75 827 24.7Q817.4 20.5 805.85 20.5Q794.45 20.5 784.7 24.7Q774.95 28.75 767.75 36.1Q760.55 43.3 756.5 53.2Q752.6 62.95 752.6 74.5ZM889.85 22L877.1 22L877.1 127L889.85 127L889.85 22ZM884.15 22L884.15 34L905.6 34Q915.8 34 922.1 38.95Q928.55 43.75 928.55 53.5Q928.55 63.1 922.1 68.05Q915.8 73 905.6 73L884.15 73L884.15 85L905.6 85Q915.8 85 923.75 81.25Q931.85 77.35 936.5 70.3Q941.3 63.1 941.3 53.5Q941.3 43.75 936.5 36.7Q931.85 29.65 923.75 25.9Q915.8 22 905.6 22L884.15 22Z" />
	<path id="Solutions" fill="#000000" aria-label="Solutions"  d="M121.98 369.68C105.04 369.68 96.9 366.16 87.88 358.24C80.18 351.64 76 342.62 76 332.72C76 316 88.54 298.84 109.66 298.84C118.02 298.84 124.84 301.04 129.02 305.22C132.76 308.52 134.74 313.58 134.74 318.86C134.74 328.76 127.92 339.32 117.8 339.32C112.08 339.32 107.68 337.78 104.82 334.7C99.76 329.64 99.98 321.94 99.98 321.94L95.8 321.72C95.58 322.16 95.36 331.18 101.74 337.56C105.48 341.52 110.98 343.72 117.8 343.72C130.34 343.72 138.92 330.96 138.92 318.86C138.92 312.26 136.5 306.32 131.88 302.14C126.82 297.3 119.12 294.66 109.66 294.66C85.9 294.66 71.82 314.02 71.82 332.72C71.82 343.94 76.44 354.06 85.02 361.32C94.92 369.9 109.66 374.52 127.48 374.52C171.04 374.52 198.76 351.2 198.76 318.2C198.76 287.62 164.88 275.08 145.96 257.48C158.28 254.4 169.06 247.8 172.58 245.16C176.32 247.36 181.16 248.46 186.66 248.46C208.66 248.46 220.76 231.52 220.76 215.24C220.76 206.22 217.24 197.64 210.64 191.48C203.16 184.66 192.16 180.7 178.96 180.7C140.02 180.7 107.02 205.56 107.02 245.16C107.02 247.8 107.02 250.22 107.46 252.64C94.26 248.24 88.32 239 85.68 231.08C79.96 213.26 86.78 188.84 100.64 178.72L98.22 175.2C82.82 186.64 75.34 212.82 81.72 232.4C84.36 240.32 90.96 252.2 108.12 257.26C117.14 296.2 170.82 294.44 170.82 335.14C170.82 355.6 153.44 369.68 121.98 369.68ZM169.5 242.74C165.98 245.16 154.98 251.76 142.22 254.62C117.36 237.68 130.78 184.88 178.96 184.88C191.06 184.88 200.96 188.4 207.78 194.56C213.5 200.06 216.58 207.32 216.58 215.24C216.58 229.54 206.02 244.72 186.66 244.72C182.7 244.72 179.4 243.84 176.54 242.52C186.44 233.72 192.6 222.28 192.6 211.94C192.6 201.38 187.32 195.88 177.86 195.88C165.98 195.88 159.38 205.78 159.38 218.32C159.38 227.56 162.9 236.8 169.5 242.74ZM177.64 199.84C184.68 199.84 188.2 203.8 188.2 211.94C188.2 222.28 181.38 233.94 172.8 240.1C166.64 235.04 163.78 226.46 163.78 218.32C163.78 207.54 168.62 199.84 177.64 199.84ZM223.18 297.3C223.18 316.44 234.62 328.98 257.72 328.98C292.26 328.98 309.42 305.22 309.42 273.1C309.42 253.96 297.76 241.42 274.88 241.42C232.64 241.42 223.18 270.68 223.18 297.3ZM258.16 323.92C252.88 323.92 248.04 320.18 248.04 306.32C248.04 268.04 262.34 245.6 274.66 245.6C282.14 245.6 284.56 252.2 284.56 264.08C284.56 297.08 271.8 323.92 258.16 323.92ZM344.18 324.58C354.3 270.02 366.18 195.66 366.4 188.4C373.44 188.4 378.94 197.2 378.94 207.76C378.94 233.28 360.46 251.98 360.46 275.74L364.42 275.74C364.42 254.4 383.12 232.4 383.12 207.76C383.12 191.7 374.76 184.44 364.86 184.44C350.12 184.44 340.88 194.78 335.6 224.7L321.3 303.9C321.08 305.88 320.86 307.86 320.86 309.62C320.86 321.94 328.34 328.98 341.98 328.98C362.44 328.98 369.48 300.6 369.48 300.6L365.52 298.84C365.52 298.84 357.82 324.58 344.18 324.58ZM386.2 301.26C386.2 318.64 396.54 328.98 413.7 328.98C427.78 328.98 435.7 321.06 440.98 310.5C441.2 322.16 448.68 328.98 462.1 328.98C468.7 328.98 474.42 326.12 478.6 321.06L475.3 318.42C472.44 321.94 468.7 324.14 464.3 324.58L479.04 241.42C479.04 241.42 469.36 243.4 452.42 243.4L443.18 294.22C437.24 311.82 428.88 322.38 420.3 322.38C414.36 322.38 411.28 319.96 411.28 312.92C411.28 299.94 419.2 274.42 419.2 259.46C419.2 247.8 412.38 241.42 399.18 241.42C384.88 241.42 380.7 249.34 380.7 249.34L384 251.98C384 251.98 389.28 245.82 395 245.82C394.12 264.74 386.2 287.4 386.2 301.26ZM537.78 208.86C537.78 208.86 527.66 210.84 510.72 210.84C508.74 222.28 506.54 233.06 504.78 243.4L493.56 243.4L493.12 247.36L503.9 247.36C498.84 274.86 494.88 297.08 494.88 307.2C494.88 321.06 505.88 328.98 519.52 328.98C539.54 328.98 548.78 312.92 553.18 294.22L549.22 292.9C546.36 305 538 322.82 526.12 322.82C522.16 322.82 519.3 320.4 519.3 315.78C519.3 307.64 525.02 274.64 530.3 247.36L557.8 247.36L558.24 243.4L530.96 243.4C534.7 224.26 537.78 208.86 537.78 208.86ZM603.56 241.42C603.56 241.42 593.44 243.4 576.5 243.4L567.04 243.4L566.6 247.36L575.84 247.36L568.58 286.74C567.04 295.98 565.06 303.9 565.06 310.72C565.06 321.28 572.54 328.98 586.18 328.98C592.78 328.98 598.5 326.12 602.68 321.06L599.38 318.42C596.52 321.94 592.78 324.14 588.38 324.58ZM578.7 209.08C578.7 217.88 585.74 224.92 594.54 224.92C603.34 224.92 610.6 217.88 610.6 209.08C610.6 200.28 603.34 193.02 594.54 193.02C585.74 193.02 578.7 200.28 578.7 209.08ZM615.22 297.3C615.22 316.44 626.66 328.98 649.76 328.98C684.3 328.98 701.46 305.22 701.46 273.1C701.46 253.96 689.8 241.42 666.92 241.42C624.68 241.42 615.22 270.68 615.22 297.3ZM650.2 323.92C644.92 323.92 640.08 320.18 640.08 306.32C640.08 268.04 654.38 245.6 666.7 245.6C674.18 245.6 676.6 252.2 676.6 264.08C676.6 297.08 663.84 323.92 650.2 323.92ZM806.18 269.14C806.18 251.76 795.84 241.42 778.68 241.42C763.5 241.42 755.58 250.44 750.52 262.1L750.52 260.78C750.52 248.46 743.04 241.42 729.4 241.42C722.8 241.42 717.08 244.28 712.9 249.34L716.2 251.98C719.06 248.46 722.8 246.26 727.2 245.82L719.94 286.52C718.4 295.76 716.42 303.9 716.42 310.72C716.42 321.28 723.9 328.98 737.54 328.98C744.14 328.98 749.86 326.12 754.04 321.06L750.74 318.42C747.88 321.94 743.92 324.14 739.52 324.58L747 283.44C752.94 261.66 762.4 248.02 772.08 248.02C778.02 248.02 781.1 250.44 781.1 257.48C781.1 270.46 773.18 295.98 773.18 310.94C773.18 322.6 780 328.98 793.2 328.98C807.5 328.98 811.68 321.06 811.68 321.06L808.38 318.42C808.38 318.42 803.1 324.58 797.38 324.58C798.26 305.66 806.18 283 806.18 269.14ZM842.7 323.26C836.76 323.26 830.6 321.06 827.3 316.22C828.84 316.66 830.16 317.1 833.24 317.1C842.04 317.1 848.2 309.84 848.2 301.04C848.2 292.24 841.82 285.86 833.02 285.86C825.54 285.86 816.74 290.26 816.74 303.46C816.74 316.44 827.52 328.98 848.64 328.98C872.84 328.98 890.22 313.36 890.22 292.68C890.22 263.64 870.42 260.34 870.42 231.3L865.14 231.3C865.14 231.3 858.98 239.44 858.98 251.54L858.98 252.42C854.14 257.48 843.36 267.38 829.28 270.46L829.28 275.74C843.36 273.32 853.7 264.96 859.42 259.02C860.74 269.58 864.48 277.5 864.48 291.14C864.48 312.26 858.1 323.26 842.7 323.26Z" />
</svg>