<svg id="visual" viewBox="0 0 900 600" width="900" height="600" preserveAspectRatio="none" xmlns="http://www.w3.org/2000/svg" xmlns:xlink="http://www.w3.org/1999/xlink" version="1.1"><rect x="0" y="0" width="900" height="600" fill="#ffffff"></rect><path d="M0 419L21.5 423.8C43 428.7 86 438.3 128.8 429.7C171.7 421 214.3 394 257.2 385C300 376 343 385 385.8 394.8C428.7 404.7 471.3 415.3 514.2 409.2C557 403 600 380 642.8 367.3C685.7 354.7 728.3 352.3 771.2 362.5C814 372.7 857 395.3 878.5 406.7L900 418L900 601L878.5 601C857 601 814 601 771.2 601C728.3 601 685.7 601 642.8 601C600 601 557 601 514.2 601C471.3 601 428.7 601 385.8 601C343 601 300 601 257.2 601C214.3 601 171.7 601 128.8 601C86 601 43 601 21.5 601L0 601Z" fill="#ffffff"></path><path d="M0 472L21.5 460.8C43 449.7 86 427.3 128.8 421.3C171.7 415.3 214.3 425.7 257.2 434.7C300 443.7 343 451.3 385.8 450.3C428.7 449.3 471.3 439.7 514.2 434.7C557 429.7 600 429.3 642.8 434.2C685.7 439 728.3 449 771.2 450.5C814 452 857 445 878.5 441.5L900 438L900 601L878.5 601C857 601 814 601 771.2 601C728.3 601 685.7 601 642.8 601C600 601 557 601 514.2 601C471.3 601 428.7 601 385.8 601C343 601 300 601 257.2 601C214.3 601 171.7 601 128.8 601C86 601 43 601 21.5 601L0 601Z" fill="#ffddd9"></path><path d="M0 499L21.5 497.2C43 495.3 86 491.7 128.8 489C171.7 486.3 214.3 484.7 257.2 486C300 487.3 343 491.7 385.8 495.5C428.7 499.3 471.3 502.7 514.2 496.2C557 489.7 600 473.3 642.8 462.7C685.7 452 728.3 447 771.2 452C814 457 857 472 878.5 479.5L900 487L900 601L878.5 601C857 601 814 601 771.2 601C728.3 601 685.7 601 642.8 601C600 601 557 601 514.2 601C471.3 601 428.7 601 385.8 601C343 601 300 601 257.2 601C214.3 601 171.7 601 128.8 601C86 601 43 601 21.5 601L0 601Z" fill="#ffbab5"></path><path d="M0 530L21.5 531.5C43 533 86 536 128.8 536.3C171.7 536.7 214.3 534.3 257.2 533.3C300 532.3 343 532.7 385.8 525.3C428.7 518 471.3 503 514.2 500.2C557 497.3 600 506.7 642.8 514.2C685.7 521.7 728.3 527.3 771.2 524.7C814 522 857 511 878.5 505.5L900 500L900 601L878.5 601C857 601 814 601 771.2 601C728.3 601 685.7 601 642.8 601C600 601 557 601 514.2 601C471.3 601 428.7 601 385.8 601C343 601 300 601 257.2 601C214.3 601 171.7 601 128.8 601C86 601 43 601 21.5 601L0 601Z" fill="#fd9792"></path><path d="M0 535L21.5 534.8C43 534.7 86 534.3 128.8 536.5C171.7 538.7 214.3 543.3 257.2 544C300 544.7 343 541.3 385.8 542.2C428.7 543 471.3 548 514.2 546C557 544 600 535 642.8 538.3C685.7 541.7 728.3 557.3 771.2 559.3C814 561.3 857 549.7 878.5 543.8L900 538L900 601L878.5 601C857 601 814 601 771.2 601C728.3 601 685.7 601 642.8 601C600 601 557 601 514.2 601C471.3 601 428.7 601 385.8 601C343 601 300 601 257.2 601C214.3 601 171.7 601 128.8 601C86 601 43 601 21.5 601L0 601Z" fill="#f77171"></path></svg>